<svg xmlns="http://www.w3.org/2000/svg" xmlns:xlink="http://www.w3.org/1999/xlink" width="600" height="513.838" viewBox="0 0 600 513.838">
  <defs>
    <linearGradient id="linear-gradient" y1="0.5" x2="1" y2="0.5" gradientUnits="objectBoundingBox">
      <stop offset="0" stop-color="#cc68ff"/>
      <stop offset="1" stop-color="#fb8e31"/>
    </linearGradient>
    <linearGradient id="linear-gradient-2" x1="-0.426" y1="2.413" x2="-0.217" y2="-0.333" gradientUnits="objectBoundingBox">
      <stop offset="0" stop-color="#1ae5ff"/>
      <stop offset="0.259" stop-color="#63e8f8"/>
      <stop offset="0.704" stop-color="#eaeeee"/>
    </linearGradient>
    <linearGradient id="linear-gradient-3" x1="-21.598" y1="0.5" x2="-20.598" y2="0.5" gradientUnits="objectBoundingBox">
      <stop offset="0" stop-color="#5155d4"/>
      <stop offset="1" stop-color="#45f7ff"/>
    </linearGradient>
    <linearGradient id="linear-gradient-4" y1="0.5" x2="1" y2="0.5" gradientUnits="objectBoundingBox">
      <stop offset="0" stop-color="#7f5eff"/>
      <stop offset="0.242" stop-color="#8664ff"/>
      <stop offset="0.595" stop-color="#97f"/>
      <stop offset="0.94" stop-color="#b391ff"/>
    </linearGradient>
    <linearGradient id="linear-gradient-5" x1="0.379" y1="-0.704" x2="0.707" y2="2.574" xlink:href="#linear-gradient-3"/>
    <linearGradient id="linear-gradient-6" x1="0.5" y1="-0.431" x2="0.5" y2="1.431" xlink:href="#linear-gradient-4"/>
    <linearGradient id="linear-gradient-7" x1="25" y1="0.952" x2="27.188" y2="0.073" xlink:href="#linear-gradient-2"/>
    <linearGradient id="linear-gradient-8" x1="-1.325" y1="0.5" x2="-0.325" y2="0.5" xlink:href="#linear-gradient-3"/>
    <linearGradient id="linear-gradient-9" x1="10.321" y1="1.713" x2="10.116" y2="-0.714" xlink:href="#linear-gradient-2"/>
    <linearGradient id="linear-gradient-10" x1="9.708" y1="3.316" x2="9.487" y2="-1.829" xlink:href="#linear-gradient-2"/>
    <linearGradient id="linear-gradient-11" x1="26.872" y1="2.196" x2="26.504" y2="0.034" xlink:href="#linear-gradient-2"/>
    <linearGradient id="linear-gradient-12" x1="0.39" y1="0.71" x2="1.312" y2="-1.047" xlink:href="#linear-gradient"/>
    <linearGradient id="linear-gradient-13" x1="5.327" y1="1.013" x2="5.948" y2="0.049" gradientUnits="objectBoundingBox">
      <stop offset="0" stop-color="#92f3ff"/>
      <stop offset="1" stop-color="#fff"/>
    </linearGradient>
    <linearGradient id="linear-gradient-14" x1="0" y1="0.5" x2="1" y2="0.5" xlink:href="#linear-gradient-3"/>
  </defs>
  <g id="loginImage" transform="translate(-69.928 -90.103)">
    <g id="Group_40" data-name="Group 40" transform="translate(69.928 90.103)">
      <g id="Group_1" data-name="Group 1" transform="translate(435.375 404.316)">
        <path id="Path_1" data-name="Path 1" d="M390.816,371.014a9.3,9.3,0,0,1,4.243,7.315c-.008,2.7-1.921,3.79-4.272,2.439l-38.7-22.241a9.312,9.312,0,0,1-4.245-7.333c.008-2.687,1.923-3.773,4.272-2.424Z" transform="translate(-347.843 -348.192)" fill="#1ae5ff"/>
      </g>
      <g id="Group_7" data-name="Group 7" transform="translate(0 145.11)">
        <g id="Group_2" data-name="Group 2" opacity="0.57">
          <path id="Path_2" data-name="Path 2" d="M74.592,221.9a10.286,10.286,0,0,0-4.664,8.066l.313,109.561c.019,6.98,5.005,9.837,11.08,6.347L146.886,308.2a10.287,10.287,0,0,0,4.664-8.068l-.313-109.56c-.021-6.982-5.007-9.837-11.08-6.347Z" transform="translate(-69.928 -182.731)" fill="#1ae5ff"/>
        </g>
        <g id="Group_6" data-name="Group 6" transform="translate(13.336 47.961)">
          <g id="Group_5" data-name="Group 5">
            <g id="Group_3" data-name="Group 3">
              <path id="Path_3" data-name="Path 3" d="M79.83,244.26a3.037,3.037,0,0,0-1.389,2.389l.016,5.817c0,.881.628,1.236,1.4.794l53.458-30.723a3.041,3.041,0,0,0,1.389-2.4l-.016-5.817c0-.876-.628-1.23-1.4-.787Z" transform="translate(-78.441 -213.346)" fill="#fff"/>
            </g>
            <g id="Group_4" data-name="Group 4" transform="translate(0.035 12.662)">
              <path id="Path_4" data-name="Path 4" d="M79.852,252.343a3.043,3.043,0,0,0-1.389,2.393l.018,5.819c0,.881.627,1.23,1.4.787l53.46-30.723a3.034,3.034,0,0,0,1.389-2.389l-.018-5.819c0-.881-.627-1.235-1.4-.792Z" transform="translate(-78.463 -221.429)" fill="#fff"/>
            </g>
          </g>
          <path id="Path_5" data-name="Path 5" d="M93.861,250.937a7.213,7.213,0,0,0-3.291,5.674l0,1.335c0,2.087,1.486,2.927,3.312,1.879l17.289-9.937a7.214,7.214,0,0,0,3.3-5.676l0-1.335c0-2.082-1.491-2.925-3.317-1.876Z" transform="translate(-71.569 -197.934)" fill="url(#linear-gradient)"/>
        </g>
      </g>
      <g id="Group_11" data-name="Group 11" transform="translate(203.101)">
        <path id="Path_6" data-name="Path 6" d="M225.7,92.357c-.175-.1-.351-.2-.526-.292-.226-.122-.451-.238-.676-.348s-.448-.216-.67-.314-.442-.192-.66-.279-.446-.173-.667-.249c-.043-.016-.085-.027-.128-.041l-.049-.017c-.161-.054-.324-.11-.485-.157-.228-.068-.456-.13-.681-.187s-.453-.106-.678-.149q-.364-.071-.722-.119c-.163-.022-.324-.035-.485-.049l-.072-.008c-.059,0-.118-.013-.177-.017-.262-.017-.52-.027-.775-.025-.29,0-.574.014-.855.041a8.777,8.777,0,0,0-.95.136l-.022.006-.03.008a8.385,8.385,0,0,0-1.1.3,7.933,7.933,0,0,0-1.335.614l-10.938,6.326a8.166,8.166,0,0,1,2.432-.914l.033-.01a9.878,9.878,0,0,1,2.778-.14l.077.008a13.4,13.4,0,0,1,3.049.662l.046.016a19.114,19.114,0,0,1,3.328,1.525L513.8,270.994l10.938-6.326Z" transform="translate(-197.621 -90.103)" fill="url(#linear-gradient-2)"/>
        <path id="Path_7" data-name="Path 7" d="M432.928,231.241c-.008-.265-.019-.53-.037-.8s-.038-.533-.064-.8-.056-.536-.091-.806-.073-.549-.118-.825l0-.022,0-.017c-.041-.262-.088-.527-.137-.79-.054-.286-.112-.571-.175-.857s-.129-.573-.2-.86-.148-.581-.23-.871c-.064-.225-.131-.451-.2-.676l-.016-.054c-.014-.046-.027-.092-.041-.138q-.132-.426-.273-.849t-.293-.836c-.1-.268-.2-.536-.3-.8s-.212-.532-.322-.8c-.086-.2-.174-.406-.263-.609l-.016-.038c-.021-.046-.04-.092-.061-.138q-.177-.4-.364-.8-.2-.433-.419-.862c-.164-.33-.335-.657-.509-.984-.188-.349-.389-.7-.588-1.041-.035-.06-.067-.122-.1-.183s-.081-.146-.123-.217q-.584-.988-1.223-1.939-.507-.755-1.044-1.481c-.241-.324-.485-.644-.733-.959q-.313-.4-.636-.781c-.209-.252-.421-.5-.636-.743s-.426-.476-.643-.708l-.129-.137-.048-.048c-.164-.175-.328-.349-.5-.519-.23-.233-.462-.46-.7-.684s-.482-.452-.726-.671-.488-.43-.735-.638c-.123-.1-.247-.2-.372-.3l-.084-.07-.277-.225c-.241-.189-.482-.371-.726-.551s-.477-.343-.718-.508-.467-.313-.7-.462-.466-.289-.7-.425l-.163-.1-10.938,6.328a25.526,25.526,0,0,1,3.285,2.266l.083.067a31.713,31.713,0,0,1,3.025,2.816l.048.049a38.475,38.475,0,0,1,5.168,6.964c.035.06.067.122.1.183a39.7,39.7,0,0,1,1.937,3.816l.021.046a36.4,36.4,0,0,1,1.492,4.03l.016.054a31.045,31.045,0,0,1,.942,4.055l0,.016A25.069,25.069,0,0,1,422,238.31l-.592,207.8a18.627,18.627,0,0,1-.336,3.538l-.021.1a13.1,13.1,0,0,1-.933,2.892c-.008.018-.014.037-.022.054a9.6,9.6,0,0,1-1.239,1.908c-.151.19-.295.39-.458.565a8.1,8.1,0,0,1-1.8,1.479l10.938-6.328a8.1,8.1,0,0,0,1.8-1.479c.164-.175.3-.373.458-.563a8.99,8.99,0,0,0,.595-.733,10.267,10.267,0,0,0,.623-1.124l.022-.052.021-.051c.124-.268.244-.543.352-.83s.2-.568.289-.865q.12-.41.218-.84c.027-.117.048-.241.073-.36l.021-.1c.022-.114.048-.225.069-.341.045-.257.085-.519.118-.786s.061-.524.081-.792.038-.513.049-.776.018-.525.018-.8l0-.048.592-207.8C432.939,231.736,432.936,231.488,432.928,231.241Z" transform="translate(-82.87 -25.782)" fill="url(#linear-gradient-3)"/>
        <g id="Group_8" data-name="Group 8" transform="translate(0 6.328)">
          <path id="Path_8" data-name="Path 8" d="M522.259,271.99c9.117,5.239,16.474,17.925,16.446,28.353l-.592,207.8c-.03,10.428-7.437,14.629-16.552,9.39L216.019,341.942c-9.116-5.239-16.474-17.925-16.444-28.351l.592-207.8c.03-10.428,7.435-14.627,16.552-9.39Z" transform="translate(-199.574 -94.142)" fill="url(#linear-gradient-4)"/>
        </g>
        <g id="Group_9" data-name="Group 9" transform="translate(21.57 28.585)">
          <path id="Path_9" data-name="Path 9" d="M495.6,263.478c8.381,4.817,15.146,16.479,15.119,26.066l-.544,191.033c-.029,9.586-6.837,13.448-15.218,8.633L228.461,336.152c-8.381-4.815-15.146-16.478-15.117-26.064l.544-191.033c.027-9.586,6.836-13.448,15.216-8.633Z" transform="translate(-213.343 -108.35)" fill="#f9fbfc"/>
        </g>
        <path id="Path_10" data-name="Path 10" d="M409.443,339.048h0a2.225,2.225,0,0,1-2.231-2.22v-66.6a2.225,2.225,0,0,1,2.231-2.219h0a2.224,2.224,0,0,1,2.229,2.219v66.6A2.225,2.225,0,0,1,409.443,339.048Z" transform="translate(-81.931 10.696)" fill="#f9fbfc"/>
        <g id="Group_10" data-name="Group 10" transform="translate(5.668 135.954)">
          <path id="Path_11" data-name="Path 11" d="M207.928,177.531a10.321,10.321,0,0,1,4.707,8.115c-.008,2.982-2.13,4.185-4.737,2.687a10.315,10.315,0,0,1-4.705-8.115C203.2,177.238,205.323,176.033,207.928,177.531Z" transform="translate(-203.193 -176.887)" fill="#fff"/>
        </g>
      </g>
      <g id="Group_15" data-name="Group 15" transform="translate(292.544 128.648)">
        <path id="Path_12" data-name="Path 12" d="M341.6,208.374a48.452,48.452,0,0,1,1.757,8.2,38.926,38.926,0,0,1,.293,4.79c0,.476-.016.943-.037,1.4,0,.071,0,.143-.008.213-.022.436-.054.865-.092,1.286l-.024.244c-.043.422-.092.838-.152,1.243-.084.552-.153.946-.23,1.33-.1.5-.191.882-.289,1.259-.016.065-.032.13-.049.194-.1.365-.2.722-.314,1.071l-.062.19c-.118.352-.241.7-.373,1.035-.169.419-.306.735-.45,1.043-.206.435-.362.736-.525,1.032-.032.056-.062.113-.094.17q-.246.433-.512.843l-.088.129c-.188.283-.381.559-.584.822s-.421.524-.638.767c-.03.035-.061.07-.092.1-.209.232-.426.454-.647.667-.043.041-.085.081-.128.121q-.335.314-.687.6c-.037.03-.073.057-.11.086-.236.189-.475.368-.722.538-.306.21-.568.37-.832.522-.049.029-.1.059-.15.087q-.387.217-.789.406l-.167.076c-.277.125-.557.243-.844.349-.236.084-.387.127-.536.175-.092-10.132-7.244-22.379-16.071-27.451-8.915-5.123-16.162-1.013-16.19,9.169.013.022.258.429.733,1.149-.211-.289-.421-.579-.627-.873-.4-.576-.67-.976-.936-1.379-.049-.073-.1-.146-.147-.221q-.423-.648-.832-1.308c-.057-.094-.115-.187-.174-.281-.276-.452-.55-.906-.816-1.365-.287-.5-.541-.952-.791-1.409-.049-.089-.1-.176-.145-.265q-.371-.686-.726-1.379c-.043-.084-.084-.17-.128-.254-.223-.444-.443-.89-.655-1.34-.285-.6-.5-1.079-.714-1.557l-.129-.3q-.311-.714-.6-1.435c-.249-.621-.426-1.074-.595-1.532-.029-.075-.057-.149-.086-.225q-.266-.721-.51-1.443c-.032-.1-.064-.192-.1-.289q-.493-1.478-.894-2.96c-.027-.1-.053-.2-.08-.294-.126-.478-.247-.957-.359-1.433-.019-.086-.038-.171-.057-.256q-.158-.683-.293-1.363c-.126-.638-.21-1.117-.289-1.6-.016-.1-.034-.2-.049-.308-.075-.478-.142-.955-.2-1.43-.07-.608-.116-1.055-.155-1.5-.006-.081-.014-.16-.021-.241-.037-.465-.065-.927-.085-1.389,0-.1-.008-.2-.011-.3-.017-.471-.029-.943-.027-1.409a30.97,30.97,0,0,1,.319-4.439,21.828,21.828,0,0,1,1.8-6.158c.169-.357.348-.7.534-1.036,4.307-7.7,13.41-9.483,23.924-3.439,9.436,5.423,17.7,15.83,22.374,27.024.308.736.6,1.476.88,2.219Q341.1,206.722,341.6,208.374Zm-23.871.762c5.44,3.127,9.854.608,9.872-5.6.018-6.223-4.367-13.783-9.806-16.91s-9.854-.622-9.871,5.6,4.378,13.791,9.806,16.91" transform="translate(-237.407 -172.223)" fill="url(#linear-gradient-5)"/>
        <g id="Group_14" data-name="Group 14" transform="translate(0 37.38)">
          <g id="Group_12" data-name="Group 12" transform="translate(0.096)">
            <path id="Path_13" data-name="Path 13" d="M402.332,278.111a8.06,8.06,0,0,1,3.685,6.336l-.045,15.438c-.006,2.336-1.665,3.277-3.709,2.1L260.415,220.467a8.066,8.066,0,0,1-3.685-6.352l.045-15.437c.006-2.324,1.665-3.263,3.707-2.089Z" transform="translate(-256.73 -196.084)" fill="#cfe3ff"/>
          </g>
          <g id="Group_13" data-name="Group 13" transform="translate(0 33.599)">
            <path id="Path_14" data-name="Path 14" d="M402.271,299.558a8.064,8.064,0,0,1,3.685,6.352l-.045,15.437c-.006,2.338-1.665,3.263-3.709,2.089L260.354,241.914a8.041,8.041,0,0,1-3.685-6.336l.045-15.438c.006-2.336,1.665-3.277,3.707-2.1Z" transform="translate(-256.669 -217.531)" fill="#cfe3ff"/>
          </g>
        </g>
      </g>
      <path id="Path_15" data-name="Path 15" d="M324.788,282.037a15.072,15.072,0,0,1,6.871,11.845l-.008,2.789c-.013,4.357-3.106,6.112-6.915,3.922l-36.1-20.747a15.07,15.07,0,0,1-6.88-11.851l.008-2.787c.013-4.346,3.116-6.107,6.925-3.917Z" transform="translate(50.087 6.354)" fill="url(#linear-gradient-6)"/>
      <g id="Group_18" data-name="Group 18" transform="translate(216 232.805)">
        <path id="Path_16" data-name="Path 16" d="M230.779,272.928s-12.241,7.018-14.121,39.138c1.566,5.925,10.964,9.044,18.169,4.365S234.563,278.382,230.779,272.928Z" transform="translate(-202.793 -219.323)" fill="url(#linear-gradient-7)"/>
        <path id="Path_17" data-name="Path 17" d="M265.414,305.985s28.034-12.429,31.8-14.54,6.6-9.85,8.011-11.491,7.775-5.393,7.539-3.752-3.533,4.69-3.533,4.69,2.355,3.987,2.827,6.566S309,295.2,307.113,296.6s-6.36,1.876-6.36,1.876-22.852,15.241-26.622,15.476S264.942,312.081,265.414,305.985Z" transform="translate(-175.186 -217.698)" fill="#ff9d6f"/>
        <ellipse id="Ellipse_1" data-name="Ellipse 1" cx="56.667" cy="33.517" rx="56.667" ry="33.517" transform="translate(0 214)" opacity="0.21" fill="url(#linear-gradient-8)" style="mix-blend-mode: multiply;isolation: isolate"/>
        <path id="Path_18" data-name="Path 18" d="M229.076,394.923s-.729,5.315.242,7.49c.971,1.933,4.855,3.382,7.524,1.449a77.116,77.116,0,0,0,7.282-6.764s7.765-4.106,8.494-6.28-1.942-4.108-4.127-3.625-8.494,4.349-11.407,4.349S230.047,392.266,229.076,394.923Z" transform="translate(-195.907 -154.626)" fill="#113c7a"/>
        <path id="Path_19" data-name="Path 19" d="M223.874,319.882s6.793,111.588,7.639,114.821,9.658,5.088,11.291-.046c1.038-3.26,3.6-106.527,3.6-106.527Z" transform="translate(-198.705 -192.72)" fill="#113c7a"/>
        <path id="Path_20" data-name="Path 20" d="M243.536,399.011a1.726,1.726,0,0,0-.6,1.3c-.014,1.535.057,4.955.93,6.287a6.547,6.547,0,0,0,8.435,1.57c3.143-1.7,12.82-8.9,14.784-10.493a5.763,5.763,0,0,0,1.955-3.079,1.745,1.745,0,0,0-.993-2.025,8.472,8.472,0,0,0-5.815-.665c-3.2,1.073-7.239,4.528-11.6,4.341A10.743,10.743,0,0,0,243.536,399.011Z" transform="translate(-187.904 -152.073)" fill="#113c7a"/>
        <path id="Path_21" data-name="Path 21" d="M266.189,322.52c-.49-4.636-6.065-6.144-11.2-4.565-9.8-.525-24.968-.109-25.5,7.46-.788,11.207,4.49,19.2,9.581,24.644,3.763,4.019,6.266,11.708,7.319,15.456.891,29.6,2.862,71.328,4.091,75.323,1.982,6.434,11.734,6.144,12.174-.122C264.631,419.541,266.189,322.52,266.189,322.52Z" transform="translate(-195.567 -194.155)" fill="#113c7a"/>
        <path id="Path_22" data-name="Path 22" d="M270.325,352.529c-1.151,5.726-17.546,8.588-27.133,7.063s-19.912-6.209-19.571-17.275c0,0-1.456-44.21-1.456-52.908a25.635,25.635,0,0,1,5.495-15.135s5.37-6.109,22.243-2.673c0,0,13.748,2.981,20.075,13.1,0,0,4.369,11.113,2.913,34.306S270.325,352.529,270.325,352.529Z" transform="translate(-199.674 -220.669)" fill="url(#linear-gradient-9)"/>
        <path id="Path_23" data-name="Path 23" d="M231.463,263.666s1.456,8.456,0,12.321c-.244,1.933,8.251,8.456,15.776,6.764,4.367-.967,4.125-3.141,4.125-3.141s-3.64-6.039-3.154-11.837S236.558,262.458,231.463,263.666Z" transform="translate(-194.409 -225.004)" fill="#ff7c40"/>
        <g id="Group_16" data-name="Group 16" transform="translate(25.403 1.699)">
          <path id="Path_24" data-name="Path 24" d="M264.071,259.726a20.024,20.024,0,1,1-20.024-19.931A19.979,19.979,0,0,1,264.071,259.726Z" transform="translate(-224.023 -239.795)" fill="#ff9d6f"/>
          <path id="Path_25" data-name="Path 25" d="M260.131,255.456s.242,19.965-4.127,23.995-11.075-3.773-21.8-6.274c-10.725-2.741,8.693-23.5,8.693-23.5Z" transform="translate(-220.084 -234.196)" fill="#ff9d6f"/>
        </g>
        <g id="Group_17" data-name="Group 17" transform="translate(57.051 59.293)">
          <path id="Path_26" data-name="Path 26" d="M251.006,276.642s4.386-1.248,9.4,5.925,12.219,16.527,15.664,18.087,8.145-1.56,10.025-1.56,6.893,8.733,5.013,13.1-14.1,6.549-17.23,6.549-23.5-12.161-26.315-19.022S240.355,276.955,251.006,276.642Z" transform="translate(-244.226 -276.559)" fill="url(#linear-gradient-10)"/>
          <path id="Path_27" data-name="Path 27" d="M269.151,292.9a6.354,6.354,0,0,1,5.638-3.742c4.386-.311,9.4,8.107,9.085,12.785s-7.206,7.172-8.771,5.925S276.669,303.5,269.151,292.9Z" transform="translate(-230.103 -269.427)" fill="url(#linear-gradient-11)"/>
        </g>
        <path id="Path_28" data-name="Path 28" d="M256.8,243.517s7.2,1.559,9.4,12.472c-.941,4.679-7.52.936-10.025,7.172s-4.074,8.109-4.074,8.109l-1.566-.624s0-4.99-2.192-4.99-2.819,5.925-1.567,8.42a9.246,9.246,0,0,0,4.074,3.741s-3.133,5.3-4.7,5.925-7.2-.622-9.4-1.559-6.265-5.3-9.4-10.29-5.952-13.721-4.072-19.646,6.265-7.483,6.265-7.483a15.907,15.907,0,0,1,6.893-4.99C240.819,238.216,248.965,237.592,256.8,243.517Z" transform="translate(-199.387 -238.71)" fill="#843837"/>
        <path id="Path_29" data-name="Path 29" d="M256.021,276.523l-5.222-2.911s-13.367-1.247-18.169-4.365l-2.507,3.535a15.269,15.269,0,0,0,11.9,7.276c8.562.832,12.531-2.495,12.531-2.495Z" transform="translate(-195.165 -221.408)" fill="#cfdae4"/>
      </g>
      <g id="Group_23" data-name="Group 23" transform="translate(475.485 109.353)" opacity="0.67">
        <g id="Group_19" data-name="Group 19" transform="translate(0.249)">
          <path id="Path_30" data-name="Path 30" d="M410.3,180.389l-.018,5.842a4.5,4.5,0,0,1-6.751,3.858L375.845,174.1a4.469,4.469,0,0,1-2.24-3.882l.018-5.842a4.5,4.5,0,0,1,6.751-3.858l27.684,15.987A4.475,4.475,0,0,1,410.3,180.389Z" transform="translate(-373.605 -159.907)" fill="#1ae5ff"/>
        </g>
        <g id="Group_20" data-name="Group 20" transform="translate(0.166 29.068)">
          <path id="Path_31" data-name="Path 31" d="M497.9,249.242l-.016,5.855a4.5,4.5,0,0,1-6.743,3.863L375.8,192.673a4.469,4.469,0,0,1-2.248-3.887l.018-5.855a4.5,4.5,0,0,1,6.743-3.863l115.341,66.286A4.473,4.473,0,0,1,497.9,249.242Z" transform="translate(-373.552 -178.462)" fill="#1ae5ff"/>
        </g>
        <g id="Group_21" data-name="Group 21" transform="translate(0 87.24)" opacity="0.53">
          <path id="Path_32" data-name="Path 32" d="M450.241,259.046l-.016,5.855a4.5,4.5,0,0,1-6.743,3.863l-67.788-38.957a4.475,4.475,0,0,1-2.248-3.889l.018-5.855a4.5,4.5,0,0,1,6.743-3.863l67.788,38.958A4.467,4.467,0,0,1,450.241,259.046Z" transform="translate(-373.446 -215.595)" fill="#1ae5ff"/>
        </g>
        <g id="Group_22" data-name="Group 22" transform="translate(0.083 58.154)">
          <path id="Path_33" data-name="Path 33" d="M479.963,257.53l-.016,5.855a4.5,4.5,0,0,1-6.743,3.863l-97.457-56.008a4.475,4.475,0,0,1-2.248-3.889l.018-5.855a4.5,4.5,0,0,1,6.743-3.863l97.455,56.007A4.471,4.471,0,0,1,479.963,257.53Z" transform="translate(-373.499 -197.029)" fill="#1ae5ff"/>
        </g>
      </g>
      <g id="Group_28" data-name="Group 28" transform="translate(4.693 77.645)" opacity="0.67">
        <g id="Group_24" data-name="Group 24" transform="translate(45.057)">
          <path id="Path_34" data-name="Path 34" d="M101.685,150.2l.01,3.006a2.312,2.312,0,0,0,3.473,1.984l14.244-8.225a2.3,2.3,0,0,0,1.151-2l-.008-3.006a2.312,2.312,0,0,0-3.473-1.984l-14.244,8.225A2.3,2.3,0,0,0,101.685,150.2Z" transform="translate(-101.685 -139.667)" fill="#1ae5ff"/>
        </g>
        <g id="Group_25" data-name="Group 25" transform="translate(0 14.955)">
          <path id="Path_35" data-name="Path 35" d="M72.924,185.628l.01,3.012a2.312,2.312,0,0,0,3.47,1.987l59.342-34.1a2.3,2.3,0,0,0,1.156-2l-.008-3.012a2.313,2.313,0,0,0-3.47-1.987l-59.342,34.1A2.3,2.3,0,0,0,72.924,185.628Z" transform="translate(-72.924 -149.213)" fill="#1ae5ff"/>
        </g>
        <g id="Group_26" data-name="Group 26" transform="translate(24.552 44.884)" opacity="0.53">
          <path id="Path_36" data-name="Path 36" d="M88.6,190.674l.008,3.012a2.314,2.314,0,0,0,3.47,1.987l34.876-20.044a2.3,2.3,0,0,0,1.156-2l-.008-3.012a2.312,2.312,0,0,0-3.47-1.987L89.752,188.672A2.3,2.3,0,0,0,88.6,190.674Z" transform="translate(-88.596 -168.317)" fill="#1ae5ff"/>
        </g>
        <g id="Group_27" data-name="Group 27" transform="translate(9.245 29.919)">
          <path id="Path_37" data-name="Path 37" d="M78.825,189.893l.01,3.012a2.312,2.312,0,0,0,3.468,1.987l50.142-28.815a2.3,2.3,0,0,0,1.156-2l-.01-3.012a2.313,2.313,0,0,0-3.468-1.987l-50.14,28.816A2.3,2.3,0,0,0,78.825,189.893Z" transform="translate(-78.825 -158.765)" fill="#1ae5ff"/>
        </g>
      </g>
      <g id="Group_29" data-name="Group 29" transform="translate(240.328 170.121)">
        <path id="Path_38" data-name="Path 38" d="M271.172,222.5A23.918,23.918,0,1,1,247.255,198.7,23.863,23.863,0,0,1,271.172,222.5Z" transform="translate(-223.337 -198.697)" fill="url(#linear-gradient-12)"/>
        <path id="Path_39" data-name="Path 39" d="M240.9,228.757l-9.983-7.267,3.632-4.944,5.179,3.769,10.5-13.324,4.842,3.781Z" transform="translate(-219.044 -193.998)" fill="#fff"/>
      </g>
      <g id="Group_30" data-name="Group 30" transform="translate(129.93 33.723)" opacity="0.46">
        <path id="Path_40" data-name="Path 40" d="M256,166.4c5.638,3.239,10.2,11.108,10.184,17.557-.019,6.488-4.613,9.094-10.251,5.855l-92.877-53.378c-5.638-3.239-10.2-11.108-10.184-17.6.019-6.449,4.613-9.055,10.251-5.814Z" transform="translate(-152.867 -111.629)" fill="#1ae5ff"/>
      </g>
      <g id="Group_31" data-name="Group 31" transform="translate(513.475 333.05)" opacity="0.46">
        <path id="Path_41" data-name="Path 41" d="M469.377,340.768a15.524,15.524,0,0,1,7.078,12.2c-.013,4.509-3.206,6.322-7.124,4.069l-64.556-37.1a15.532,15.532,0,0,1-7.078-12.231c.013-4.484,3.207-6.295,7.124-4.043Z" transform="translate(-397.697 -302.7)" fill="#1ae5ff"/>
      </g>
      <g id="Group_32" data-name="Group 32" transform="translate(1.471 275.156)">
        <path id="Path_42" data-name="Path 42" d="M209.483,294.886c2.389,1.373,2.4,3.593.027,4.963l-79.318,45.883a9.512,9.512,0,0,1-8.609,0L72.665,317.619c-2.384-1.37-2.4-3.59-.029-4.963l79.319-45.883a9.521,9.521,0,0,1,8.609,0Z" transform="translate(-70.867 -265.744)" fill="url(#linear-gradient-13)"/>
      </g>
      <g id="Group_39" data-name="Group 39" transform="translate(42.09 198.921)">
        <g id="Group_33" data-name="Group 33" transform="translate(28.526 202.925)" opacity="0.21" style="mix-blend-mode: multiply;isolation: isolate">
          <ellipse id="Ellipse_2" data-name="Ellipse 2" cx="58.21" cy="33.562" rx="58.21" ry="33.562" transform="matrix(1, -0.003, 0.003, 1, 0, 0.329)" fill="url(#linear-gradient-14)"/>
        </g>
        <g id="Group_38" data-name="Group 38">
          <path id="Path_43" data-name="Path 43" d="M149.595,372.292s-10.485,2.722-14.588,2.722,0,4.085,6.837,4.539,13.221.906,14.59-.908-.3-6.958-.3-6.958Z" transform="translate(-76.073 -129.485)" fill="#5155d4"/>
          <path id="Path_44" data-name="Path 44" d="M168.219,366.209s-10.485,2.722-14.588,2.722,0,4.084,6.839,4.538,13.22.908,14.588-.908-.3-6.956-.3-6.956Z" transform="translate(-65.521 -132.931)" fill="#5155d4"/>
          <path id="Path_45" data-name="Path 45" d="M171.5,294.057s3.8,103.765,4.406,114.656a7.651,7.651,0,0,1-6.686,1.209s-12.308-68.067-14.132-85.613-4.863-23.6-4.863-23.6Z" transform="translate(-66.523 -173.468)" fill="#343996"/>
          <path id="Path_46" data-name="Path 46" d="M139.185,300.669s-3.647,59.9,7.295,117.984c0,0,3.647,1.814,6.686-2.42,0,0,6.686-101.648,8.51-116.169S144.048,297.644,139.185,300.669Z" transform="translate(-73.109 -174.03)" fill="#343996"/>
          <path id="Path_47" data-name="Path 47" d="M151.209,344.778s6.078-16.941,11.549-26.017,4.254-22.387,4.254-22.387l-20.666,1.816Z" transform="translate(-68.722 -172.155)" fill="#343996"/>
          <path id="Path_48" data-name="Path 48" d="M150.813,266.731l-18.062-8.717s-5.474-5.449-6.842-6.539-10.4-3.268-12.042-3-4.653,2.725-3.832,3.27,8.484,4.631,8.757,6.266-2.736,3.814-1.641,4.9,3.557-1.089,5.2-1.089,6.293,2.179,6.293,2.179l17.515,10.078Z" transform="translate(-89.373 -199.305)" fill="#ff9d6f"/>
          <g id="Group_34" data-name="Group 34" transform="translate(48.802 49.004)">
            <path id="Path_49" data-name="Path 49" d="M179.109,249.309s-3.344-3.631-8.814,3.327-10.029,17.244-17.627,16.337-20.059-6.958-20.059-6.958-5.471,3.63-4.559,9.075c0,0,17.627,13.008,29.479,12.4s24.619-12.705,27.353-21.176S179.109,249.309,179.109,249.309Z" transform="translate(-127.947 -248.362)" fill="#ff3d9d"/>
          </g>
          <path id="Path_50" data-name="Path 50" d="M138.254,325.923c1.089,5.425,16.621,8.136,25.7,6.69s18.863-5.88,18.539-16.364c0,0,1.379-41.882,1.379-50.121a24.287,24.287,0,0,0-5.206-14.338S173.583,246,157.6,249.26c0,0-13.022,2.824-19.016,12.405,0,0-4.139,10.528-2.76,32.5S138.254,325.923,138.254,325.923Z" transform="translate(-74.843 -199.412)" fill="#ff3d9d"/>
          <path id="Path_51" data-name="Path 51" d="M164.41,241.742s-1.381,8.01,0,11.672c.23,1.832-7.818,8.01-14.945,6.409-4.139-.916-3.91-2.976-3.91-2.976s3.45-5.722,2.99-11.215S159.581,240.6,164.41,241.742Z" transform="translate(-69.171 -203.519)" fill="#ff7c40"/>
          <g id="Group_35" data-name="Group 35" transform="translate(68.336 3.208)">
            <path id="Path_52" data-name="Path 52" d="M140.418,238.01a18.968,18.968,0,1,0,18.968-18.881A18.925,18.925,0,0,0,140.418,238.01Z" transform="translate(-140.416 -219.129)" fill="#ff9d6f"/>
            <path id="Path_53" data-name="Path 53" d="M140.419,233.965s-.231,18.914,3.908,22.731,10.492-3.574,20.65-5.944c10.159-2.6-8.234-22.263-8.234-22.263Z" transform="translate(-140.417 -213.825)" fill="#ff9d6f"/>
          </g>
          <g id="Group_36" data-name="Group 36" transform="translate(0 56.633)">
            <path id="Path_54" data-name="Path 54" d="M141.661,281.831s-26.559-11.774-30.129-13.773-6.249-9.329-7.588-10.885-7.365-5.111-7.142-3.555,3.347,4.444,3.347,4.444a25.624,25.624,0,0,0-2.677,6.22c-.446,2.443,2.9,7.331,4.686,8.663s6.026,1.778,6.026,1.778,21.648,14.44,25.22,14.662S142.107,287.606,141.661,281.831Z" transform="translate(-96.796 -253.232)" fill="#ff9d6f"/>
            <path id="Path_55" data-name="Path 55" d="M159.029,256.55s-3.344-3.63-8.814,3.328-10.029,17.243-17.627,16.337-20.059-6.958-20.059-6.958-5.471,3.63-4.559,9.075c0,0,17.627,13.008,29.481,12.4s24.617-12.707,27.352-21.177S159.029,256.55,159.029,256.55Z" transform="translate(-90.522 -251.889)" fill="#ff3d9d"/>
          </g>
          <g id="Group_37" data-name="Group 37" transform="translate(67.051)">
            <path id="Path_56" data-name="Path 56" d="M148.5,222.654s-6.826,1.478-8.9,11.816c.89,4.431,7.123.886,9.5,6.795s3.859,7.68,3.859,7.68l1.484-.59s0-4.727,2.076-4.727,2.672,5.612,1.484,7.975a8.758,8.758,0,0,1-3.857,3.544s2.967,5.023,4.45,5.614,6.826-.59,8.9-1.478,5.935-5.022,8.9-9.748,5.638-13,3.857-18.609-5.935-7.09-5.935-7.09a15.065,15.065,0,0,0-6.529-4.727A20.76,20.76,0,0,0,148.5,222.654Z" transform="translate(-139.597 -216.503)" fill="#843837"/>
            <path id="Path_57" data-name="Path 57" d="M145.4,235.721a14.866,14.866,0,0,1,2.279,13.159c-2.279,7.715.912,7.715,4.1,17.7s-5.925,21.781,2.736,36.3,31.912,12.707,42.4-1.814-5.925-24.958-6.381-38.119,10.029-20.873-1.824-29.95-16.868-19.059-31.456-14.975S139.018,229.367,145.4,235.721Z" transform="translate(-138.018 -217.081)" fill="#843837"/>
          </g>
        </g>
      </g>
    </g>
  </g>
</svg>
